<?xml version="1.0" standalone="no"?>
<!DOCTYPE svg PUBLIC "-//W3C//DTD SVG 20010904//EN"
 "http://www.w3.org/TR/2001/REC-SVG-20010904/DTD/svg10.dtd">
<svg version="1.0" xmlns="http://www.w3.org/2000/svg"
 width="279.000000pt" height="357.000000pt" viewBox="0 0 279.000000 357.000000"
 preserveAspectRatio="xMidYMid meet">

<g transform="translate(0.000000,357.000000) scale(0.100000,-0.100000)"
fill="#000000" stroke="none">
<path d="M1695 3509 c-49 -50 -207 -161 -410 -288 -55 -35 -118 -78 -141 -96
-36 -30 -41 -31 -51 -17 -16 24 -38 8 -97 -69 -47 -61 -48 -62 -42 -29 l7 35
-22 -25 c-32 -37 -75 -128 -93 -196 -41 -151 -25 -416 39 -672 40 -159 40
-152 19 -152 -9 0 -32 -16 -52 -36 -32 -32 -35 -38 -21 -47 14 -9 14 -14 2
-51 -12 -35 -12 -42 0 -51 7 -5 17 -30 21 -55 4 -24 21 -73 38 -107 l31 -63
-23 -69 c-27 -85 -91 -197 -111 -194 -8 1 -57 11 -109 22 -117 25 -264 28
-341 5 -114 -33 -229 -137 -293 -265 -44 -87 -47 -113 -11 -79 l26 24 -16 -37
c-19 -47 -29 -143 -17 -182 10 -36 38 -45 47 -14 6 19 9 18 25 -18 18 -42 62
-83 88 -83 12 0 13 9 8 47 l-6 47 23 -22 c60 -56 173 -67 362 -32 60 10 112
17 117 14 5 -3 14 -2 21 3 7 5 26 8 42 8 17 0 32 3 35 7 3 3 19 8 35 11 17 3
58 10 93 16 54 10 198 8 209 -2 7 -8 -32 -67 -45 -67 -7 0 -17 -12 -23 -27 -5
-16 -24 -39 -42 -52 -26 -20 -32 -30 -31 -60 2 -61 3 -65 29 -93 14 -15 25
-31 25 -36 0 -8 92 -52 110 -52 6 0 10 -5 10 -11 0 -6 7 -9 15 -5 8 3 15 0 15
-5 0 -6 9 -9 20 -6 11 3 20 2 20 -3 0 -4 6 -8 13 -7 6 0 29 -1 50 -1 41 -2 42
-5 17 -82 -14 -42 -13 -164 0 -168 6 -2 8 -8 5 -12 -3 -5 4 -14 15 -20 11 -6
20 -8 20 -4 0 3 6 2 13 -4 20 -17 81 -11 127 12 51 26 101 84 104 120 0 14 5
26 10 26 10 0 2 164 -9 192 -5 13 -2 18 9 18 9 0 16 7 16 15 0 8 7 15 15 15 8
0 15 6 15 13 0 7 14 31 30 54 55 75 75 167 48 226 -12 25 -20 31 -33 25 -2 -2
-11 7 -20 19 -8 12 -25 23 -38 25 -21 3 -20 5 9 20 39 21 222 46 299 41 88 -6
130 -5 235 6 114 11 137 19 188 66 37 32 40 34 45 15 13 -50 58 -5 72 73 6 31
10 35 21 26 23 -19 29 -2 29 75 0 64 -3 77 -28 109 -21 28 -24 37 -13 37 55 0
-56 125 -149 170 -85 40 -193 56 -282 40 -76 -13 -191 -56 -270 -101 l-52 -30
-34 53 c-59 92 -99 187 -122 293 -5 24 -4 28 6 17 7 -6 17 -12 21 -12 11 0 10
74 -2 105 -9 24 -8 26 10 20 26 -8 26 15 0 73 -13 30 -29 47 -49 55 l-30 11
30 37 c40 51 139 128 220 173 36 20 126 59 200 87 74 27 144 57 157 65 26 17
29 39 6 52 -12 7 -6 12 29 26 25 9 64 31 87 47 38 27 42 34 38 65 -4 32 0 38
49 75 167 126 362 390 389 527 6 28 4 32 -15 32 -13 0 -41 -13 -64 -29 -61
-42 -224 -127 -298 -157 -35 -13 -127 -43 -203 -65 -77 -22 -157 -50 -179 -60
l-39 -20 7 20 c6 19 4 20 -19 11 -53 -20 -83 -40 -124 -80 -33 -33 -42 -38
-42 -24 -1 29 -116 -98 -190 -209 -70 -104 -176 -313 -218 -430 -26 -70 -33
-81 -70 -102 -36 -20 -41 -21 -40 -7 5 67 -23 86 -42 28 -6 -19 -29 -54 -50
-78 l-39 -43 0 45 c-1 66 25 247 45 310 31 105 63 151 197 287 149 150 157
161 134 178 -15 11 -14 14 7 34 35 33 52 77 36 96 -10 12 -7 20 14 46 44 52
47 104 7 111 -18 3 -10 18 61 113 107 146 151 239 156 328 4 60 2 67 -15 67
-10 0 -41 -23 -68 -51z"/>
</g>
</svg>
